<svg data-name="Слой 1" xmlns="http://www.w3.org/2000/svg" viewBox="0 0 100 100"><path d="M88 77.5h-4.5V16a1.5 1.5 0 0 0-1.5-1.5H68a1.5 1.5 0 0 0-1.5 1.5v61.5h-8V39a1.5 1.5 0 0 0-1.5-1.5H43a1.5 1.5 0 0 0-1.5 1.5v38.5h-8V61a1.5 1.5 0 0 0-1.5-1.5H18a1.5 1.5 0 0 0-1.5 1.5v16.5H12a1.5 1.5 0 0 0 0 3h76a1.5 1.5 0 0 0 0-3zm-18.5-60h11v60h-11zm-25 23h11v37h-11zm-25 22h11v15h-11zM13 49.5a1.5 1.5 0 0 0 1.06-.44L55.5 7.62V14a1.5 1.5 0 0 0 3 0V4a1.49 1.49 0 0 0-.11-.55 1.5 1.5 0 0 0-.82-.82A1.49 1.49 0 0 0 57 2.5H47a1.5 1.5 0 0 0 0 3h6.38L11.94 46.94A1.5 1.5 0 0 0 13 49.5z"/></svg>