<?xml version="1.0" encoding="iso-8859-1"?>
<!-- Generator: Adobe Illustrator 21.0.2, SVG Export Plug-In . SVG Version: 6.00 Build 0)  -->
<svg version="1.1" id="Layer_1" xmlns="http://www.w3.org/2000/svg" xmlns:xlink="http://www.w3.org/1999/xlink" x="0px" y="0px"
	 viewBox="0 0 100.5 100.5" style="enable-background:new 0 0 100.5 100.5;" xml:space="preserve">
<path d="M85.408,48.523c-3.636-3.64-8.217-6.068-13.248-7.022c-0.817-0.158-1.599,0.38-1.753,1.194s0.38,1.599,1.194,1.753
	c4.437,0.841,8.477,2.983,11.685,6.196c4.256,4.252,6.599,9.907,6.598,15.922c-0.001,6.013-2.345,11.668-6.598,15.922
	c-8.782,8.776-23.068,8.776-31.845,0.002c-3.203-3.205-5.345-7.244-6.193-11.679c-0.156-0.813-0.94-1.343-1.756-1.191
	c-0.813,0.156-1.347,0.941-1.191,1.756c0.962,5.026,3.389,9.603,7.019,13.235c4.974,4.973,11.506,7.458,18.041,7.458
	c6.534-0.001,13.071-2.487,18.047-7.46c4.82-4.82,7.475-11.229,7.477-18.043C92.885,59.75,90.23,53.341,85.408,48.523z"/>
<path d="M51.052,66.843c0.586,0.586,1.535,0.586,2.121,0l14.47-14.465c0.281-0.282,0.439-0.663,0.439-1.061s-0.158-0.78-0.439-1.061
	l-6.295-6.29c2.263-2.903,7.86-10.542,7.717-14.901c-0.172-4.888-4.152-6.179-6.233-6.179c-0.397,0-0.779,0.158-1.061,0.439
	L47.721,37.38l-9.536-9.54c1.805-5.426,0.42-11.412-3.651-15.481c-2.854-2.855-6.649-4.427-10.69-4.427
	c-4.039,0-7.837,1.572-10.693,4.428C10.3,15.214,8.73,19.01,8.73,23.047c-0.001,4.041,1.573,7.837,4.429,10.689
	c4.041,4.046,9.963,5.442,15.351,3.695l9.578,9.582L24.119,60.976c-0.281,0.281-0.439,0.663-0.439,1.061
	c0,2.081,1.293,6.062,6.189,6.229c0.055,0.002,0.109,0.003,0.165,0.003c4.38-0.001,11.862-5.483,14.729-7.717L51.052,66.843z
	 M28.492,34.242c-0.106,0.029-0.208,0.069-0.303,0.12c-4.475,1.713-9.518,0.649-12.911-2.749c-2.289-2.286-3.55-5.329-3.55-8.567
	c0-3.236,1.259-6.278,3.543-8.566c2.289-2.288,5.333-3.548,8.571-3.548c3.239,0,6.282,1.26,8.569,3.549
	c3.444,3.442,4.488,8.596,2.675,13.096c-0.271,0.573-0.153,1.254,0.295,1.703l10.218,10.222l-2.649,2.65l0.033,0.034
	c-0.486,0.419-1.286,1.217-2.777,2.706l-10.02-10.025C29.833,34.33,29.137,34.066,28.492,34.242z M29.967,65.267
	c-2.429-0.084-3.067-1.725-3.233-2.667c4.205-4.204,10.519-10.515,14.531-14.524c0.001-0.001,0.002-0.001,0.003-0.002
	s0.001-0.002,0.002-0.003c2.169-2.167,3.665-3.662,3.785-3.781c0.006-0.005,0.012-0.011,0.018-0.017L63.399,25.94
	c0.919,0.16,2.582,0.786,2.668,3.228c0.1,3.032-4.785,10.173-7.888,13.962c-0.489,0.597-0.445,1.467,0.1,2.012l6.182,6.177
	l-6.178,6.176l-6.17,6.168l-6.178-6.179c-0.544-0.545-1.414-0.587-2.011-0.1C40.135,60.484,32.95,65.35,29.967,65.267z"/>
<g>
	<g>
		
			<line style="fill:none;stroke:#00AEEF;stroke-width:0.75;stroke-miterlimit:10;" x1="1158.979" y1="202.759" x2="1058.979" y2="202.759"/>
		
			<line style="fill:none;stroke:#00AEEF;stroke-width:0.75;stroke-miterlimit:10;" x1="1158.979" y1="142.761" x2="1058.979" y2="142.761"/>
		
			<line style="fill:none;stroke:#00AEEF;stroke-width:0.75;stroke-miterlimit:10;" x1="1158.979" y1="156.093" x2="1058.979" y2="156.093"/>
		
			<line style="fill:none;stroke:#00AEEF;stroke-width:0.75;stroke-miterlimit:10;" x1="1158.979" y1="149.431" x2="1058.979" y2="149.431"/>
		
			<line style="fill:none;stroke:#00AEEF;stroke-width:0.75;stroke-miterlimit:10;" x1="1158.979" y1="162.763" x2="1058.979" y2="162.763"/>
		
			<line style="fill:none;stroke:#00AEEF;stroke-width:0.75;stroke-miterlimit:10;" x1="1158.979" y1="169.432" x2="1058.979" y2="169.432"/>
		
			<line style="fill:none;stroke:#00AEEF;stroke-width:0.75;stroke-miterlimit:10;" x1="1158.979" y1="176.095" x2="1058.979" y2="176.095"/>
		
			<line style="fill:none;stroke:#00AEEF;stroke-width:0.75;stroke-miterlimit:10;" x1="1158.979" y1="182.764" x2="1058.979" y2="182.764"/>
		
			<line style="fill:none;stroke:#00AEEF;stroke-width:0.75;stroke-miterlimit:10;" x1="1158.979" y1="189.427" x2="1058.979" y2="189.427"/>
		
			<line style="fill:none;stroke:#00AEEF;stroke-width:0.75;stroke-miterlimit:10;" x1="1158.979" y1="196.095" x2="1058.979" y2="196.095"/>
		
			<line style="fill:none;stroke:#00AEEF;stroke-width:0.75;stroke-miterlimit:10;" x1="1158.979" y1="209.427" x2="1058.979" y2="209.427"/>
		
			<line style="fill:none;stroke:#00AEEF;stroke-width:0.75;stroke-miterlimit:10;" x1="1158.979" y1="216.089" x2="1058.979" y2="216.089"/>
		
			<line style="fill:none;stroke:#00AEEF;stroke-width:0.75;stroke-miterlimit:10;" x1="1158.979" y1="222.759" x2="1058.979" y2="222.759"/>
		
			<line style="fill:none;stroke:#00AEEF;stroke-width:0.75;stroke-miterlimit:10;" x1="1158.979" y1="229.429" x2="1058.979" y2="229.429"/>
		
			<line style="fill:none;stroke:#00AEEF;stroke-width:0.75;stroke-miterlimit:10;" x1="1158.979" y1="236.091" x2="1058.979" y2="236.091"/>
		
			<line style="fill:none;stroke:#00AEEF;stroke-width:0.75;stroke-miterlimit:10;" x1="1158.979" y1="242.761" x2="1058.979" y2="242.761"/>
		
			<line style="fill:none;stroke:#00AEEF;stroke-width:0.75;stroke-miterlimit:10;" x1="1158.979" y1="242.761" x2="1158.979" y2="142.761"/>
		
			<line style="fill:none;stroke:#00AEEF;stroke-width:0.75;stroke-miterlimit:10;" x1="1152.309" y1="242.761" x2="1152.309" y2="142.761"/>
		
			<line style="fill:none;stroke:#00AEEF;stroke-width:0.75;stroke-miterlimit:10;" x1="1145.646" y1="242.761" x2="1145.646" y2="142.761"/>
		
			<line style="fill:none;stroke:#00AEEF;stroke-width:0.75;stroke-miterlimit:10;" x1="1138.977" y1="242.761" x2="1138.977" y2="142.761"/>
		
			<line style="fill:none;stroke:#00AEEF;stroke-width:0.75;stroke-miterlimit:10;" x1="1132.315" y1="242.761" x2="1132.315" y2="142.761"/>
		
			<line style="fill:none;stroke:#00AEEF;stroke-width:0.75;stroke-miterlimit:10;" x1="1125.646" y1="242.761" x2="1125.646" y2="142.761"/>
		
			<line style="fill:none;stroke:#00AEEF;stroke-width:0.75;stroke-miterlimit:10;" x1="1118.975" y1="242.761" x2="1118.975" y2="142.761"/>
		
			<line style="fill:none;stroke:#00AEEF;stroke-width:0.75;stroke-miterlimit:10;" x1="1112.314" y1="242.761" x2="1112.314" y2="142.761"/>
		
			<line style="fill:none;stroke:#00AEEF;stroke-width:0.75;stroke-miterlimit:10;" x1="1105.645" y1="242.761" x2="1105.645" y2="142.761"/>
		
			<line style="fill:none;stroke:#00AEEF;stroke-width:0.75;stroke-miterlimit:10;" x1="1098.982" y1="242.761" x2="1098.982" y2="142.761"/>
		
			<line style="fill:none;stroke:#00AEEF;stroke-width:0.75;stroke-miterlimit:10;" x1="1092.313" y1="242.761" x2="1092.313" y2="142.761"/>
		
			<line style="fill:none;stroke:#00AEEF;stroke-width:0.75;stroke-miterlimit:10;" x1="1085.65" y1="242.761" x2="1085.65" y2="142.761"/>
		
			<line style="fill:none;stroke:#00AEEF;stroke-width:0.75;stroke-miterlimit:10;" x1="1078.981" y1="242.761" x2="1078.981" y2="142.761"/>
		
			<line style="fill:none;stroke:#00AEEF;stroke-width:0.75;stroke-miterlimit:10;" x1="1072.31" y1="242.761" x2="1072.31" y2="142.761"/>
		
			<line style="fill:none;stroke:#00AEEF;stroke-width:0.75;stroke-miterlimit:10;" x1="1065.649" y1="242.761" x2="1065.649" y2="142.761"/>
		
			<line style="fill:none;stroke:#00AEEF;stroke-width:0.75;stroke-miterlimit:10;" x1="1058.979" y1="242.761" x2="1058.979" y2="142.761"/>
	</g>
	
		<line style="fill:none;stroke:#ED1C24;stroke-width:0.75;stroke-miterlimit:10;" x1="1152.309" y1="142.761" x2="1152.309" y2="242.761"/>
	
		<line style="fill:none;stroke:#ED1C24;stroke-width:0.75;stroke-miterlimit:10;" x1="1065.649" y1="142.761" x2="1065.649" y2="242.761"/>
</g>
</svg>
