<svg xmlns="http://www.w3.org/2000/svg" viewBox="0 0 100.5 100.5"><path d="M85.408 48.523a25.328 25.328 0 0 0-13.248-7.022 1.5 1.5 0 1 0-.559 2.947 22.329 22.329 0 0 1 11.685 6.196 22.353 22.353 0 0 1 6.598 15.922 22.38 22.38 0 0 1-6.598 15.922c-8.782 8.776-23.068 8.776-31.845.002a22.423 22.423 0 0 1-6.193-11.679 1.5 1.5 0 1 0-2.947.565 25.417 25.417 0 0 0 7.019 13.235c4.974 4.973 11.506 7.458 18.041 7.458 6.534-.001 13.071-2.487 18.047-7.46 4.82-4.82 7.475-11.229 7.477-18.043 0-6.816-2.655-13.225-7.477-18.043z"/><path d="M51.052 66.843a1.5 1.5 0 0 0 2.121 0l14.47-14.465a1.503 1.503 0 0 0 0-2.122l-6.295-6.29c2.263-2.903 7.86-10.542 7.717-14.901-.172-4.888-4.152-6.179-6.233-6.179-.397 0-.779.158-1.061.439L47.721 37.38l-9.536-9.54a15.114 15.114 0 0 0-3.651-15.481 15.012 15.012 0 0 0-10.69-4.427 15.023 15.023 0 0 0-10.693 4.428A15.023 15.023 0 0 0 8.73 23.047a15 15 0 0 0 4.429 10.689 15.088 15.088 0 0 0 15.351 3.695l9.578 9.582-13.969 13.963a1.5 1.5 0 0 0-.439 1.061c0 2.081 1.293 6.062 6.189 6.229a4.5 4.5 0 0 0 .165.003c4.38-.001 11.862-5.483 14.729-7.717l6.289 6.291zm-22.56-32.601a1.45 1.45 0 0 0-.303.12 12.098 12.098 0 0 1-12.911-2.749 12.028 12.028 0 0 1-3.55-8.567c0-3.236 1.259-6.278 3.543-8.566a12.044 12.044 0 0 1 8.571-3.548c3.239 0 6.282 1.26 8.569 3.549a12.111 12.111 0 0 1 2.675 13.096 1.502 1.502 0 0 0 .295 1.703l10.218 10.222-2.649 2.65.033.034c-.486.419-1.286 1.217-2.777 2.706l-10.02-10.025a1.556 1.556 0 0 0-1.694-.625zm1.475 31.025c-2.429-.084-3.067-1.725-3.233-2.667l14.531-14.524.003-.002.002-.003 3.785-3.781.018-.017L63.399 25.94c.919.16 2.582.786 2.668 3.228.1 3.032-4.785 10.173-7.888 13.962a1.5 1.5 0 0 0 .1 2.012l6.182 6.177-6.178 6.176-6.17 6.168-6.178-6.179a1.502 1.502 0 0 0-2.011-.1c-3.789 3.1-10.974 7.966-13.957 7.883z"/><g fill="none" stroke-width=".75" stroke-miterlimit="10"><g stroke="#00aeef"><path d="M1158.979 202.759h-100M1158.979 142.761h-100M1158.979 156.093h-100M1158.979 149.431h-100M1158.979 162.763h-100M1158.979 169.432h-100M1158.979 176.095h-100M1158.979 182.764h-100M1158.979 189.427h-100M1158.979 196.095h-100M1158.979 209.427h-100M1158.979 216.089h-100M1158.979 222.759h-100M1158.979 229.429h-100M1158.979 236.091h-100M1158.979 242.761h-100M1158.979 242.761v-100M1152.309 242.761v-100M1145.646 242.761v-100M1138.977 242.761v-100M1132.315 242.761v-100M1125.646 242.761v-100M1118.975 242.761v-100M1112.314 242.761v-100M1105.645 242.761v-100M1098.982 242.761v-100M1092.313 242.761v-100M1085.65 242.761v-100M1078.981 242.761v-100M1072.31 242.761v-100M1065.649 242.761v-100M1058.979 242.761v-100"/></g><path stroke="#ed1c24" d="M1152.309 142.761v100M1065.649 142.761v100"/></g></svg>