<svg xmlns="http://www.w3.org/2000/svg" viewBox="0 0 100.353 100.352"><path d="M50.001 6.578C26.058 6.578 6.58 26.057 6.58 49.999c0 23.943 19.479 43.421 43.421 43.421s43.421-19.479 43.421-43.421C93.421 26.057 73.943 6.578 50.001 6.578zm-1.5 83.805c-21.097-.776-38.109-17.788-38.884-38.884h11.949c.757 14.51 12.425 26.178 26.935 26.935v11.949zm0-14.957c-12.854-.75-23.176-11.073-23.927-23.927h12.587c.689 5.934 5.406 10.65 11.34 11.34v12.587zm0-15.619a9.94 9.94 0 0 1-8.308-8.308h8.308v8.308zm-8.309-11.308a9.94 9.94 0 0 1 8.308-8.308v8.308h-8.308zm8.309-11.34c-5.934.69-10.65 5.406-11.34 11.34H24.574c.751-12.854 11.073-23.176 23.927-23.926v12.586zm0-15.594c-14.51.757-26.178 12.425-26.935 26.934H9.617c.775-21.096 17.787-38.108 38.884-38.883v11.949zM51.5 9.616c21.097.775 38.109 17.787 38.883 38.883H78.434C77.677 33.99 66.009 22.322 51.5 21.565V9.616zm8.309 41.883a9.94 9.94 0 0 1-8.308 8.308v-8.308h8.308zm-8.308-3v-8.308a9.94 9.94 0 0 1 8.308 8.308h-8.308zm11.34 3h12.587c-.75 12.854-11.073 23.176-23.926 23.927l-.001-12.587c5.934-.69 10.65-5.406 11.34-11.34zM51.5 24.572c12.854.751 23.176 11.073 23.926 23.926H62.84v.001c-.69-5.934-5.406-10.65-11.34-11.34V24.572zm.001 65.81V78.433c14.509-.757 26.177-12.425 26.934-26.935h11.949c-.775 21.097-17.787 38.109-38.883 38.884z"/></svg>