<svg data-name="Слой 2" xmlns="http://www.w3.org/2000/svg" viewBox="0 0 100 100"><path d="M76.88 49.92A1.5 1.5 0 0 0 75.5 49H58.23l10-40.62A1.5 1.5 0 0 0 65.7 7L23.44 49.44A1.5 1.5 0 0 0 24.5 52h17.27l-10 40.62A1.5 1.5 0 0 0 34.3 94l42.26-42.44a1.5 1.5 0 0 0 .32-1.64zM36 88.09l9.16-37.23A1.5 1.5 0 0 0 43.69 49H28.11L64 12.91l-9.14 37.23A1.5 1.5 0 0 0 56.31 52h15.58zM71.06 68.94a1.5 1.5 0 0 0-2.12 2.12l12 12a1.5 1.5 0 0 0 2.12-2.12zM28 30.5a1.5 1.5 0 0 0 1.06-2.56l-12-12a1.5 1.5 0 0 0-2.12 2.12l12 12a1.5 1.5 0 0 0 1.06.44z"/><path d="M68.44 29.56a1.5 1.5 0 0 0 2.12 0l12-12a1.5 1.5 0 0 0-2.12-2.12l-12 12a1.5 1.5 0 0 0 0 2.12zM27.44 69.44l-12 12a1.5 1.5 0 1 0 2.12 2.12l12-12a1.5 1.5 0 0 0-2.12-2.12z"/><circle cx="18.5" cy="62.5" r="2.5"/><circle cx="9.5" cy="55.5" r="2.5"/><circle cx="89.5" cy="42.5" r="2.5"/><circle cx="31.5" cy="17.5" r="2.5"/></svg>