<svg xmlns="http://www.w3.org/2000/svg" viewBox="0 0 100.353 100.353"><path d="M53.378 5.489c-18.718 0-33.946 15.229-33.946 33.949 0 1.265.069 2.532.206 3.777-2.465 2.71-9.632 11.272-5.893 15.386.752.829 3.997 2.982 6.347 3.868l-.016 4.191c0 8.871 6.101 18.3 17.358 18.299l6.256.207v7.844a1.5 1.5 0 1 0 3 0v-9.295c0-.81-.642-1.473-1.45-1.499l-7.756-.256c-9.459 0-14.408-7.697-14.408-15.294l.02-5.251a1.5 1.5 0 0 0-1.316-1.495c-.907-.314-4.636-2.037-5.814-3.336-.99-1.089.661-5.807 6.336-11.832.309-.328.454-.777.396-1.224a31.524 31.524 0 0 1-.265-4.091c0-17.065 13.882-30.949 30.946-30.949 17.067 0 30.953 13.884 30.953 30.949a30.95 30.95 0 0 1-10.458 23.182 1.498 1.498 0 0 0-.507 1.123l-.021 29.093a1.5 1.5 0 0 0 1.499 1.501h.001a1.5 1.5 0 0 0 1.5-1.499l.021-28.426a33.951 33.951 0 0 0 10.965-24.974C87.331 20.718 72.1 5.489 53.378 5.489z"/><path d="M53.473 20.24c-11.011 0-19.97 8.951-19.97 19.953a1.5 1.5 0 1 0 3 0c0-9.348 7.613-16.953 16.97-16.953 9.354 0 16.963 7.605 16.963 16.953 0 5.126-2.17 9.927-5.805 12.843-2.151 1.727-5.772 3.547-10.799 2.431-7.729-1.721-8.329-9.502-8.329-11.847 0-4.872 3.836-8.843 8.577-8.911.078.013.158.019.238.019a4.843 4.843 0 0 1 4.838 4.837 4.846 4.846 0 0 1-4.838 4.845 1.5 1.5 0 1 0 0 3c4.322 0 7.838-3.52 7.838-7.845 0-4.275-3.442-7.762-7.701-7.836a1.51 1.51 0 0 0-.251-.021c-6.452 0-11.701 5.344-11.701 11.912 0 5.994 2.805 13.022 10.678 14.774 1.223.272 2.438.406 3.635.406 3.529 0 6.881-1.169 9.692-3.424 4.338-3.48 6.928-9.156 6.928-15.184 0-11.001-8.956-19.952-19.963-19.952z"/></svg>